<?xml version="1.0" encoding="utf-8"?>
<!-- Generator: Adobe Illustrator 16.0.0, SVG Export Plug-In . SVG Version: 6.00 Build 0)  -->
<!DOCTYPE svg PUBLIC "-//W3C//DTD SVG 1.1//EN" "http://www.w3.org/Graphics/SVG/1.1/DTD/svg11.dtd">
<svg version="1.1" id="Layer_1" xmlns="http://www.w3.org/2000/svg" xmlns:xlink="http://www.w3.org/1999/xlink" x="0px" y="0px"
	 width="595.279px" height="542px" viewBox="0 0 595.279 542" enable-background="new 0 0 595.279 542" xml:space="preserve">
<path fill="#FFFFFF" d="M565.518,285.947l-41.475-81.655l-5.304-5.519l-61.278-34.257l-3.339-32.818l9.815-11.93v-6.565l-3.732-9.18
	l-64.142-65.707l-7.887-3.869L238.65,17.089l-2.072,17.834L31.111,189.202l-1.352,19.841L88.866,267.5l-40.224,32.949l0.231,20.501
	l6.911,5.405l82.696,160.553l2,1.291l-78.077-1.839l217.004,31.104l203.89-29.032l-104.425-24.566l102.348-45.878l0.654,0.387
	l0.554-0.935l1.321-0.59l4.507-9.251l55.76-94.185l-3.738-5.583l15.979-3.042L565.518,285.947z M380.517,59.997l49.295,50.492
	l-57.725,11.287L295.075,50.08L380.517,59.997z M431.02,164.093l-45.526,18.037l-46.808-55.569l20.418,19.007l11.472,3.274
	l57.754-11.292L431.02,164.093z M59.047,201.066L257.681,51.913l0.939,0.107l36.843,34.3l-10.197-0.226L121.909,263.236
	L59.047,201.066z M77.817,311.771l-0.631-0.756l14.626-11.978l35.275,108.399L77.817,311.771z M117.028,291.656l16.024-0.982
	l4.293-5.435l157.13-170.387l65.267,77.476l-136.915,54.236l-2.529,23.078l19.947,13.52l-6.696,63.594l-68.261,93.191
	L117.028,291.656z M276.509,480.961l-1.231-1.839l-10.28-5.822l-88.452-4.28l80.285-109.607l2.465-6.388l7.888-74.946l-5.696-12.245
	l-5.899-4l121.99-48.325l3.847,4.564l29.913,47.838l14.535,5.715l38.385-10.292l21.216,39.002l-30.515,4.453l-10.852,16.144
	l18.882,76.44L276.509,480.961z M482.322,366.078l-9.232-37.385l34.329-5.006L482.322,366.078z M508.228,287.203L482.399,239.7
	l-14.936-6.412l-38.997,10.459l-25.265-40.39l0,0l40.92-16.209l58.313,32.604l31.746,62.512L508.228,287.203z"/>
</svg>
