<?xml version="1.0" encoding="iso-8859-1"?>
<!-- Generator: Adobe Illustrator 16.0.0, SVG Export Plug-In . SVG Version: 6.00 Build 0)  -->
<!DOCTYPE svg PUBLIC "-//W3C//DTD SVG 1.1//EN" "http://www.w3.org/Graphics/SVG/1.1/DTD/svg11.dtd">
<svg version="1.1" id="Layer_1" xmlns="http://www.w3.org/2000/svg" xmlns:xlink="http://www.w3.org/1999/xlink" x="0px" y="0px"
	 width="595.279px" height="841.891px" viewBox="0 0 595.279 841.891" style="enable-background:new 0 0 595.279 841.891;"
	 xml:space="preserve">
<path style="fill:#535353;" d="M520.856,285.724c-0.181-2.423-2.209-4.297-4.637-4.297h-83.711v-23.253
	c0-74.368-60.505-134.868-134.868-134.868s-134.868,60.5-134.868,134.868v23.253H79.061c-2.429,0-4.455,1.874-4.638,4.297
	L41.869,713.581c-0.098,1.288,0.345,2.562,1.229,3.512c0.88,0.953,2.115,1.492,3.408,1.492h502.269c1.293,0,2.53-0.539,3.409-1.488
	c0.879-0.947,1.325-2.223,1.228-3.511L520.856,285.724z M199.977,258.173c0-53.85,43.809-97.663,97.663-97.663
	c53.854,0,97.663,43.813,97.663,97.663v23.253H199.977V258.173z"/>
</svg>
