<?xml version="1.0" encoding="utf-8"?>
<!-- Generator: Adobe Illustrator 16.0.0, SVG Export Plug-In . SVG Version: 6.00 Build 0)  -->
<!DOCTYPE svg PUBLIC "-//W3C//DTD SVG 1.1//EN" "http://www.w3.org/Graphics/SVG/1.1/DTD/svg11.dtd">
<svg version="1.1" id="Layer_1" xmlns="http://www.w3.org/2000/svg" xmlns:xlink="http://www.w3.org/1999/xlink" x="0px" y="0px"
	 width="1020px" height="1020px" viewBox="480 0 1020 1020" enable-background="new 480 0 1020 1020" xml:space="preserve">
<path fill="#F3CE7B" d="M480,510c0,62.384,11.222,122.141,31.722,177.391L990,731.738l478.278-44.349
	C1488.777,632.141,1500,572.384,1500,510s-11.223-122.141-31.722-177.391L990,288.262L511.722,332.61
	C491.222,387.859,480,447.616,480,510z"/>
<g>
	<path fill="#F09B9C" d="M1468.278,332.609C1396.219,138.403,1209.282,0,990,0S583.781,138.403,511.722,332.609H1468.278z"/>
	<path fill="#F09B9C" d="M511.722,687.391C583.781,881.597,770.718,1020,990,1020s406.219-138.403,478.278-332.609H511.722z"/>
</g>
</svg>
