<?xml version="1.0" encoding="utf-8"?>
<!-- Generator: Adobe Illustrator 16.0.0, SVG Export Plug-In . SVG Version: 6.00 Build 0)  -->
<!DOCTYPE svg PUBLIC "-//W3C//DTD SVG 1.1//EN" "http://www.w3.org/Graphics/SVG/1.1/DTD/svg11.dtd">
<svg version="1.1" id="Layer_1" xmlns="http://www.w3.org/2000/svg" xmlns:xlink="http://www.w3.org/1999/xlink" x="0px" y="0px"
	 width="1020px" height="1020px" viewBox="480 0 1020 1020" enable-background="new 480 0 1020 1020" xml:space="preserve">
<circle fill="#F0F0F0" cx="990" cy="510" r="510"/>
<g>
	<path fill="#726EB2" d="M585.427,199.501c-40.062,52.122-70.269,112.196-87.856,177.458h265.314L585.427,199.501z"/>
	<path fill="#726EB2" d="M1482.432,376.96c-17.59-65.261-47.799-125.335-87.857-177.456L1217.119,376.96H1482.432z"/>
	<path fill="#726EB2" d="M497.569,643.046c17.591,65.261,47.798,125.335,87.856,177.454l177.452-177.454H497.569L497.569,643.046z"
		/>
	<path fill="#726EB2" d="M1300.498,105.429c-52.121-40.061-112.193-70.269-177.456-87.859v265.313L1300.498,105.429z"/>
	<path fill="#726EB2" d="M679.502,914.571c52.121,40.062,112.195,70.269,177.456,87.858V737.119L679.502,914.571z"/>
	<path fill="#726EB2" d="M856.956,17.569c-65.261,17.591-125.335,47.798-177.454,87.857L856.956,282.88V17.569z"/>
	<path fill="#726EB2" d="M1123.044,1002.431c65.261-17.591,125.335-47.798,177.454-87.856L1123.044,737.12V1002.431z"/>
	<path fill="#726EB2" d="M1217.119,643.046l177.454,177.456c40.06-52.119,70.269-112.195,87.856-177.456H1217.119z"/>
</g>
<g>
	<path fill="#F09B9C" d="M1495.684,443.479h-439.157h-0.002V4.317C1034.746,1.482,1012.546,0,990,0
		c-22.55,0-44.746,1.482-66.521,4.317v439.158v0.002H484.317C481.482,465.254,480,487.454,480,510
		c0,22.55,1.482,44.746,4.317,66.521h439.156h0.003v439.16C945.254,1018.518,967.45,1020,990,1020
		c22.546,0,44.746-1.48,66.521-4.317V576.525v-0.002h439.16C1498.518,554.746,1500,532.55,1500,510
		C1500,487.454,1498.518,465.254,1495.684,443.479z"/>
	<path fill="#F09B9C" d="M1123.044,643.046L1123.044,643.046l227.58,227.58c10.467-10.463,20.452-21.402,29.979-32.742
		l-194.84-194.84h-62.719V643.046L1123.044,643.046z"/>
	<path fill="#F09B9C" d="M856.956,643.046h-0.004L629.374,870.624c10.463,10.467,21.402,20.451,32.742,29.979l194.84-194.846
		V643.046L856.956,643.046z"/>
	<path fill="#F09B9C" d="M856.956,376.96v-0.004l-227.58-227.582c-10.467,10.463-20.451,21.402-29.979,32.742L794.24,376.958h62.716
		V376.96z"/>
	<path fill="#F09B9C" d="M1123.044,376.96L1123.044,376.96l227.582-227.584c-10.463-10.467-21.402-20.452-32.742-29.976
		l-194.84,194.841V376.96L1123.044,376.96z"/>
</g>
</svg>
