<?xml version="1.0" encoding="iso-8859-1"?>
<!-- Generator: Adobe Illustrator 16.0.0, SVG Export Plug-In . SVG Version: 6.00 Build 0)  -->
<!DOCTYPE svg PUBLIC "-//W3C//DTD SVG 1.1//EN" "http://www.w3.org/Graphics/SVG/1.1/DTD/svg11.dtd">
<svg version="1.1" id="Layer_1" xmlns="http://www.w3.org/2000/svg" xmlns:xlink="http://www.w3.org/1999/xlink" x="0px" y="0px"
	 width="908.34px" height="96.721px" viewBox="0 0 908.34 96.721" style="enable-background:new 0 0 908.34 96.721;"
	 xml:space="preserve">
<rect y="0.025" style="fill:#59595A;" width="97.184" height="96.718"/>
<path style="fill:#59595A;" d="M907.334,25.299c0-0.034,0-0.066,0-0.106c-0.004-0.016-0.004-0.04-0.01-0.077
	c0-0.021-0.003-0.046-0.012-0.071c0-0.031-0.005-0.062-0.005-0.086c-0.008-0.024-0.012-0.045-0.018-0.072
	c-0.009-0.027-0.015-0.06-0.021-0.094c-0.007-0.021-0.007-0.037-0.021-0.061c-0.011-0.028-0.019-0.062-0.026-0.094
	c-0.012-0.017-0.021-0.04-0.021-0.061c-0.02-0.034-0.025-0.054-0.041-0.082c-0.012-0.023-0.025-0.048-0.041-0.075
	c-0.005-0.022-0.017-0.04-0.03-0.059c-0.019-0.033-0.027-0.056-0.046-0.085c-0.011-0.02-0.021-0.032-0.039-0.049
	c-0.011-0.026-0.033-0.049-0.049-0.071c-0.014-0.019-0.031-0.037-0.043-0.053c-0.014-0.021-0.03-0.044-0.054-0.061
	c-0.02-0.018-0.029-0.035-0.048-0.053c-0.018-0.016-0.036-0.031-0.056-0.047c-0.019-0.021-0.043-0.037-0.065-0.05
	c-0.009-0.012-0.012-0.012-0.015-0.018l-12.079-9.09c-0.011-0.013-0.016-0.013-0.024-0.016c-0.014-0.023-0.029-0.034-0.05-0.045
	c-0.011-0.003-0.021-0.009-0.026-0.013c-0.021-0.011-0.041-0.024-0.053-0.037c-0.017,0-0.032-0.012-0.043-0.021
	c-0.014-0.002-0.023-0.008-0.029-0.013c-0.021-0.012-0.047-0.017-0.073-0.027c-0.009-0.008-0.013-0.01-0.024-0.01
	c-0.004-0.001-0.004-0.001-0.004-0.001c-0.015-0.01-0.02-0.01-0.025-0.015c-0.029-0.005-0.056-0.017-0.082-0.024
	c-0.008-0.001-0.019-0.006-0.028-0.006c-0.015,0-0.017-0.001-0.026-0.001c-0.025-0.012-0.051-0.021-0.079-0.021
	c-0.018-0.004-0.038-0.004-0.061-0.004c-0.028,0-0.051-0.012-0.073-0.012c-0.026,0-0.046,0-0.07,0c-0.021,0-0.042,0-0.064,0.012
	c-0.009,0-0.016,0-0.025,0c-0.003,0-0.011,0-0.016,0c-0.008,0-0.023,0-0.034,0.004c-0.018,0-0.037,0-0.057,0.01
	c-0.004,0-0.013,0-0.019,0.001c-0.012,0-0.02,0-0.028,0.011c-0.011,0.001-0.02,0.001-0.027,0.006
	c-0.018,0.001-0.038,0.009-0.059,0.018c-0.025,0.003-0.05,0.013-0.073,0.023c-0.022,0.002-0.042,0.014-0.062,0.025
	c-0.018,0-0.034,0.012-0.048,0.017c0,0.006-0.013,0.006-0.017,0.014c-0.019,0.005-0.041,0.02-0.062,0.036
	c-0.018,0.008-0.034,0.017-0.047,0.026h-0.006l-21.618,13.891L858.715,9.691l-0.003-0.004c0-0.007-0.009-0.011-0.015-0.018
	c-0.006-0.011-0.018-0.024-0.034-0.035c-0.018-0.034-0.038-0.06-0.06-0.081c-0.006-0.016-0.023-0.036-0.037-0.05
	c-0.017-0.018-0.034-0.04-0.063-0.061c-0.018-0.018-0.036-0.034-0.061-0.059c-0.002,0-0.002-0.003-0.002-0.003
	c-0.021-0.012-0.026-0.025-0.044-0.036c-0.022-0.016-0.048-0.036-0.067-0.052c-0.018-0.009-0.039-0.017-0.056-0.033
	c-0.016-0.012-0.042-0.025-0.06-0.038c-0.023-0.006-0.044-0.022-0.061-0.027c-0.026-0.015-0.043-0.025-0.068-0.033
	c-0.024-0.008-0.046-0.016-0.066-0.026c0,0-0.008-0.004-0.011-0.004c-0.019-0.009-0.044-0.009-0.063-0.016
	c-0.019-0.01-0.04-0.015-0.061-0.017c-0.006,0-0.018-0.006-0.022-0.009l-42.259-9.092c-0.019-0.004-0.031-0.01-0.043-0.01
	c-0.022-0.001-0.052-0.005-0.08-0.011c-0.02-0.003-0.042-0.005-0.066-0.005c-0.022,0-0.046,0-0.064,0c-0.023,0-0.053,0-0.079,0
	c-0.019,0.002-0.036,0.002-0.059,0.005c-0.027,0.006-0.054,0.01-0.075,0.011c-0.023,0.01-0.044,0.014-0.062,0.014
	c-0.021,0.005-0.052,0.021-0.068,0.026c-0.024,0.005-0.047,0.01-0.069,0.018c-0.018,0.007-0.044,0.02-0.061,0.023
	c-0.021,0.009-0.047,0.024-0.066,0.035c-0.021,0.007-0.043,0.016-0.062,0.03c-0.021,0.011-0.041,0.027-0.063,0.043
	c-0.022,0.012-0.04,0.025-0.062,0.039c-0.019,0.016-0.042,0.026-0.06,0.043c-0.019,0.018-0.043,0.03-0.062,0.059
	c-0.008,0.007-0.022,0.013-0.034,0.027c-0.005,0-0.008,0.008-0.008,0.008c-0.025,0.028-0.043,0.053-0.063,0.071
	c-0.015,0.021-0.032,0.028-0.043,0.054c-0.02,0.015-0.038,0.039-0.054,0.062c-0.015,0.017-0.031,0.041-0.043,0.06
	c-0.016,0.019-0.03,0.046-0.047,0.071c-0.008,0.018-0.023,0.042-0.034,0.062c-0.011,0.024-0.025,0.049-0.04,0.07
	c-0.009,0.029-0.021,0.05-0.032,0.076c-0.011,0.021-0.016,0.045-0.031,0.072c-0.005,0.025-0.02,0.044-0.025,0.077
	c-0.011,0.019-0.018,0.048-0.025,0.073c-0.006,0.027-0.018,0.056-0.024,0.083c0,0.021-0.01,0.053-0.01,0.07
	c-0.008,0.032-0.016,0.067-0.023,0.093c0,0.013,0,0.02-0.003,0.029c0,0.021,0,0.033-0.003,0.055
	c-0.005,0.023-0.011,0.055-0.011,0.085c0,0.025-0.006,0.053-0.006,0.088c0,0.023-0.004,0.057-0.004,0.076
	c0,0.028,0.004,0.06,0.004,0.09c0.006,0.026,0.006,0.051,0.006,0.071c0,0.036,0.008,0.062,0.011,0.094
	c0.003,0.022,0.006,0.047,0.012,0.074c0.006,0.031,0.01,0.058,0.018,0.083c0,0.024,0.01,0.059,0.013,0.08
	c0.004,0.026,0.016,0.056,0.026,0.073c0.01,0.034,0.018,0.061,0.026,0.084c0.008,0.024,0.015,0.048,0.026,0.071
	c0.009,0.032,0.018,0.051,0.031,0.082c0.013,0.021,0.021,0.048,0.037,0.067c0.008,0.023,0.021,0.05,0.032,0.069
	c0.014,0.025,0.027,0.052,0.041,0.077c0.019,0.018,0.021,0.033,0.027,0.041l9.026,13.597h-10.939c-0.015,0-0.024,0.01-0.035,0.01
	c-0.03,0-0.055,0-0.081,0.002c-0.022,0-0.046,0.006-0.064,0.006c-0.026,0.006-0.049,0.01-0.07,0.017
	c-0.024,0-0.045,0.012-0.071,0.014c-0.019,0.01-0.039,0.018-0.06,0.022c-0.025,0.002-0.05,0.016-0.074,0.026
	c-0.019,0.006-0.034,0.018-0.061,0.031c-0.02,0.005-0.041,0.019-0.069,0.021c-0.016,0.022-0.036,0.029-0.057,0.04
	c-0.018,0.016-0.036,0.031-0.058,0.037c-0.021,0.018-0.037,0.031-0.063,0.05c-0.017,0.014-0.033,0.024-0.049,0.04
	c-0.021,0.015-0.042,0.036-0.059,0.062c-0.021,0.01-0.035,0.021-0.047,0.041c-0.023,0.022-0.042,0.04-0.057,0.06
	c-0.018,0.02-0.031,0.041-0.05,0.057c-0.013,0.02-0.028,0.043-0.042,0.061c-0.027,0.031-0.041,0.051-0.049,0.072
	c-0.013,0.021-0.021,0.03-0.028,0.039c-0.003,0.01-0.009,0.017-0.013,0.02c-0.014,0.026-0.027,0.062-0.046,0.089
	c-0.011,0.015-0.018,0.04-0.027,0.059c-0.012,0.027-0.028,0.054-0.04,0.085c-0.004,0.025-0.017,0.045-0.026,0.063
	c-0.01,0.026-0.018,0.055-0.022,0.084c-0.012,0.028-0.021,0.048-0.028,0.076c-0.006,0.026-0.01,0.047-0.012,0.078
	c-0.012,0.021-0.019,0.055-0.024,0.088c-0.002,0.021-0.008,0.044-0.008,0.072c-0.007,0.027-0.011,0.06-0.015,0.09
	c-0.001,0.024-0.001,0.053-0.001,0.069c-0.006,0.037-0.006,0.067-0.006,0.102c0,0.01-0.005,0.021-0.005,0.026
	c0,0.017,0.005,0.027,0.005,0.051c0,0.028,0,0.061,0.006,0.087c0,0.029,0.001,0.058,0.005,0.087c0,0.025,0.008,0.052,0.011,0.081
	c0.006,0.026,0.008,0.057,0.014,0.089c0.007,0.022,0.01,0.045,0.019,0.072c0.006,0.027,0.012,0.054,0.02,0.088
	c0.005,0.02,0.016,0.044,0.023,0.062c0.01,0.028,0.02,0.06,0.029,0.086c0.01,0.027,0.017,0.045,0.028,0.073
	c0.011,0.024,0.021,0.051,0.03,0.068c0.01,0.029,0.025,0.049,0.037,0.076c0.012,0.018,0.021,0.04,0.034,0.067
	c0.016,0.02,0.028,0.046,0.047,0.069c0.014,0.016,0.029,0.039,0.043,0.059c0.014,0.023,0.029,0.04,0.044,0.065
	c0.019,0.021,0.039,0.036,0.054,0.051c0.011,0.03,0.035,0.038,0.051,0.062c0.015,0.02,0.034,0.043,0.06,0.06
	c0.009,0.012,0.015,0.024,0.029,0.03l32.513,28.488l-5.909,46.243c0,0.002,0,0.012,0,0.016v0.01c0,0,0,0.004,0,0.016
	c-0.004,0.049-0.01,0.098-0.016,0.145c0,0.023,0,0.039,0,0.059c0,0.035,0,0.074,0,0.107c0,0.029,0.006,0.059,0.006,0.086
	c0.006,0.021,0.006,0.051,0.01,0.074c0,0.031,0,0.07,0.014,0.096c0,0.027,0.005,0.045,0.011,0.066
	c0.003,0.033,0.015,0.066,0.021,0.1c0.006,0.018,0.006,0.041,0.018,0.064c0.009,0.025,0.018,0.053,0.024,0.08
	c0.011,0.023,0.011,0.051,0.027,0.07c0.01,0.023,0.016,0.047,0.027,0.072c0.013,0.031,0.024,0.053,0.035,0.078
	c0.009,0.016,0.019,0.035,0.03,0.061c0.016,0.025,0.03,0.051,0.044,0.078c0.008,0.012,0.018,0.033,0.023,0.051
	c0.022,0.027,0.046,0.055,0.063,0.078c0.005,0.021,0.019,0.033,0.03,0.047c0.019,0.021,0.037,0.045,0.064,0.068
	c0.013,0.025,0.025,0.037,0.044,0.051c0.019,0.021,0.036,0.041,0.055,0.057c0.023,0.023,0.05,0.041,0.073,0.062
	c0.009,0.012,0.027,0.027,0.04,0.033c0.033,0.029,0.071,0.047,0.104,0.072c0.006,0,0.006,0,0.016,0.006c0,0,0,0,0.003,0
	c0.048,0.035,0.097,0.061,0.147,0.078c0.009,0.004,0.024,0.014,0.042,0.014c0.027,0.018,0.062,0.025,0.103,0.039
	c0.021,0.008,0.046,0.014,0.071,0.02c0.018,0.004,0.03,0.008,0.053,0.016c0.001,0,0.013,0,0.017,0
	c0.07,0.006,0.125,0.018,0.197,0.018h0.003l0,0c0.058,0,0.111-0.004,0.172-0.014c0.015-0.004,0.019-0.004,0.032-0.004
	c0.118-0.021,0.233-0.064,0.336-0.113c0.014-0.006,0.019-0.006,0.031-0.018c0.054-0.027,0.104-0.059,0.155-0.096
	c0.005-0.006,0.011-0.01,0.026-0.018c0.038-0.033,0.08-0.066,0.115-0.1c0.014-0.012,0.02-0.023,0.034-0.031
	c0.04-0.041,0.083-0.088,0.12-0.137c0.009-0.012,0.018-0.025,0.029-0.035c0.036-0.047,0.067-0.105,0.104-0.158
	c0-0.002,0.005-0.002,0.005-0.014c0.034-0.055,0.062-0.121,0.095-0.191c0.001,0,0.001-0.01,0.012-0.01l10.335-24.914l34.247-17.947
	c0.014-0.002,0.014-0.004,0.024-0.012c0.026-0.012,0.059-0.027,0.08-0.052c0.007,0,0.007,0,0.01,0c0.004-0.01,0.008-0.01,0.013-0.01
	c0.013-0.002,0.019-0.011,0.03-0.024c0.017-0.013,0.044-0.031,0.062-0.044c0.012-0.014,0.025-0.021,0.04-0.036
	c0.004,0,0.004-0.005,0.019-0.012c0.01-0.016,0.028-0.027,0.042-0.042c0.004,0,0.01,0,0.01-0.011c0.009,0,0.009-0.004,0.013-0.006
	c0.009-0.02,0.024-0.034,0.037-0.043c0.01-0.012,0.023-0.026,0.035-0.036c0.007,0,0.007-0.01,0.007-0.01
	c0-0.004,0.012-0.012,0.018-0.023c0,0,0.004-0.002,0.011-0.015c0.008-0.003,0.017-0.019,0.024-0.027
	c0.009-0.023,0.018-0.036,0.038-0.049c0.005-0.02,0.021-0.03,0.032-0.046c0.002-0.009,0.008-0.018,0.021-0.027
	c0-0.009,0.001-0.014,0.008-0.025c0.004-0.002,0.005-0.012,0.011-0.027c0.009,0,0.009,0,0.009-0.004
	c0.013-0.018,0.023-0.029,0.031-0.058c0.003-0.005,0.003-0.011,0.009-0.016c0.012-0.016,0.018-0.045,0.028-0.062
	c0.012-0.024,0.023-0.037,0.035-0.062l0,0l0.007-0.009c0.008-0.025,0.016-0.054,0.027-0.073c0.002-0.032,0.014-0.048,0.017-0.069
	c0.004-0.002,0.004-0.002,0.004-0.009c0.011-0.025,0.026-0.052,0.026-0.08l0.004-0.013c0-0.011,0.007-0.011,0.007-0.014l0.003-0.027
	l0,0l6.354-24.247h13.423l0,0c0,0,0.004,0,0.012,0c0.053,0,0.102-0.004,0.15-0.008c0.016-0.007,0.032-0.009,0.04-0.015
	c0.047-0.005,0.087-0.01,0.128-0.021c0.012-0.006,0.03-0.01,0.044-0.021c0.037-0.011,0.077-0.023,0.117-0.046
	c0.015-0.001,0.026-0.004,0.036-0.011c0.05-0.027,0.102-0.055,0.15-0.086c0-0.004,0-0.004,0-0.004
	c0.046-0.024,0.089-0.064,0.133-0.091c0.014-0.018,0.037-0.034,0.048-0.044c0.029-0.03,0.058-0.054,0.077-0.088
	c0.014-0.015,0.034-0.025,0.053-0.041c0.03-0.045,0.062-0.088,0.091-0.129c0.002-0.008,0.009-0.008,0.014-0.016
	c0.038-0.053,0.068-0.108,0.099-0.169c0.005-0.004,0.005-0.004,0.005-0.011c0.012-0.021,0.016-0.027,0.022-0.039
	c0.012-0.031,0.028-0.061,0.04-0.095c0.012-0.018,0.02-0.036,0.028-0.06c0.007-0.029,0.02-0.059,0.027-0.093
	c0.009-0.016,0.016-0.043,0.025-0.068c0.007-0.027,0.014-0.055,0.02-0.084c0.005-0.028,0.015-0.052,0.019-0.082
	c0.008-0.026,0.008-0.05,0.013-0.075c0-0.032,0.009-0.056,0.012-0.093c0.006-0.025,0.006-0.048,0.006-0.071
	c0.004-0.033,0.004-0.071,0.004-0.104c0-0.013,0.006-0.03,0.006-0.044C907.34,25.311,907.34,25.304,907.334,25.299z"/>
<polygon style="fill:#59595A;" points="201.411,-0.026 104.226,-0.026 104.226,96.692 135.405,96.692 135.405,64.455 
	141.885,64.455 141.885,96.692 201.411,96.692 189.788,64.455 201.411,64.455 "/>
<polygon style="fill:#59595A;" points="248.706,-0.026 248.706,96.692 345.89,96.692 345.89,37.458 286.365,37.458 286.365,59.208 
	321.596,59.208 321.596,64.509 281.155,64.509 281.155,31.914 345.89,31.914 345.89,32.215 345.89,28.64 345.89,-0.026 "/>
<polygon style="fill:#59595A;" points="353.046,0.031 353.046,96.749 398.48,96.749 398.48,64.511 404.797,64.511 404.797,96.749 
	450.23,96.749 450.23,0.031 "/>
<polygon style="fill:#59595A;" points="699.051,30.999 699.051,-0.028 601.867,-0.028 601.867,59.207 632.968,59.207 
	632.968,65.668 601.867,65.668 601.867,96.692 699.051,96.692 699.051,37.455 669.37,37.455 669.37,30.999 "/>
<polygon style="fill:#59595A;" points="803.392,31 803.392,-0.027 706.207,-0.027 706.207,59.208 737.307,59.208 737.307,65.669 
	706.207,65.669 706.207,96.693 803.392,96.693 803.392,37.456 773.71,37.456 773.71,31 "/>
<rect x="561.797" y="-0.028" style="fill:#59595A;" width="32.917" height="96.72"/>
<polygon style="fill:#59595A;" points="457.387,-0.028 457.387,96.692 485.932,96.692 485.932,66.532 492.079,66.532 
	492.079,96.692 519.41,96.692 519.41,66.532 525.561,66.532 525.561,96.692 554.104,96.692 554.104,-0.028 "/>
<rect x="208.636" y="0.056" style="fill:#59595A;" width="32.917" height="96.636"/>
</svg>
