<?xml version="1.0" encoding="iso-8859-1"?>
<!-- Generator: Adobe Illustrator 16.0.0, SVG Export Plug-In . SVG Version: 6.00 Build 0)  -->
<!DOCTYPE svg PUBLIC "-//W3C//DTD SVG 1.1//EN" "http://www.w3.org/Graphics/SVG/1.1/DTD/svg11.dtd">
<svg version="1.1" id="Layer_1" xmlns="http://www.w3.org/2000/svg" xmlns:xlink="http://www.w3.org/1999/xlink" x="0px" y="0px"
	 width="595.28px" height="841.89px" viewBox="0 0 595.28 841.89" style="enable-background:new 0 0 595.28 841.89;"
	 xml:space="preserve">
<path style="fill:#FFFFFF;stroke:#535453;stroke-width:10;stroke-miterlimit:10;" d="M580.967,287.124c0-0.202,0-0.396,0-0.626
	c-0.014-0.097-0.014-0.237-0.056-0.453c0-0.125-0.014-0.271-0.069-0.418c0-0.188-0.028-0.369-0.028-0.508
	c-0.042-0.139-0.069-0.265-0.097-0.425c-0.057-0.16-0.084-0.348-0.126-0.55c-0.042-0.118-0.042-0.216-0.125-0.355
	c-0.069-0.167-0.112-0.369-0.153-0.55c-0.07-0.098-0.125-0.237-0.125-0.355c-0.112-0.202-0.154-0.313-0.237-0.48
	c-0.069-0.139-0.153-0.285-0.251-0.446c-0.027-0.125-0.098-0.23-0.167-0.341c-0.111-0.195-0.167-0.327-0.278-0.501
	c-0.056-0.112-0.111-0.188-0.223-0.286c-0.07-0.153-0.195-0.285-0.293-0.418c-0.084-0.111-0.181-0.216-0.251-0.313
	c-0.083-0.119-0.181-0.25-0.32-0.348c-0.111-0.104-0.167-0.209-0.278-0.313c-0.098-0.091-0.209-0.181-0.32-0.271
	c-0.111-0.133-0.251-0.223-0.391-0.3c-0.055-0.062-0.069-0.062-0.083-0.098l-70.94-53.383c-0.057-0.077-0.084-0.077-0.14-0.091
	c-0.084-0.14-0.167-0.202-0.293-0.265c-0.056-0.014-0.125-0.049-0.153-0.077c-0.125-0.063-0.236-0.139-0.307-0.216
	c-0.097,0-0.194-0.07-0.25-0.125c-0.084-0.014-0.14-0.049-0.182-0.076c-0.125-0.07-0.278-0.098-0.432-0.161
	c-0.041-0.042-0.069-0.056-0.139-0.056c-0.028-0.007-0.028-0.007-0.028-0.007c-0.083-0.056-0.111-0.056-0.14-0.083
	c-0.181-0.035-0.334-0.098-0.487-0.146c-0.042-0.007-0.111-0.035-0.167-0.035c-0.084,0-0.098-0.007-0.153-0.007
	c-0.153-0.069-0.292-0.125-0.46-0.125c-0.111-0.021-0.223-0.021-0.361-0.021c-0.168,0-0.293-0.07-0.432-0.07
	c-0.154,0-0.266,0-0.404,0c-0.125,0-0.251,0-0.391,0.07c-0.041,0-0.083,0-0.139,0c-0.028,0-0.07,0-0.098,0
	c-0.042,0-0.14,0-0.195,0.021c-0.111,0-0.223,0-0.334,0.056c-0.027,0-0.07,0-0.111,0.007c-0.07,0-0.111,0-0.167,0.062
	c-0.056,0.007-0.112,0.007-0.153,0.035c-0.111,0.007-0.223,0.056-0.349,0.104c-0.153,0.014-0.292,0.077-0.432,0.139
	c-0.126,0.014-0.251,0.077-0.362,0.146c-0.098,0-0.195,0.07-0.278,0.098c0,0.035-0.069,0.035-0.098,0.084
	c-0.111,0.027-0.237,0.111-0.362,0.209c-0.111,0.049-0.209,0.097-0.278,0.16h-0.042l-126.95,81.568l-75.437-111.126l-0.021-0.021
	c0-0.042-0.049-0.062-0.084-0.104c-0.035-0.063-0.104-0.139-0.202-0.209c-0.104-0.195-0.223-0.348-0.348-0.474
	c-0.035-0.09-0.14-0.209-0.223-0.292c-0.097-0.104-0.195-0.237-0.369-0.355c-0.104-0.104-0.216-0.202-0.355-0.341
	c-0.014,0-0.014-0.021-0.014-0.021c-0.119-0.07-0.153-0.146-0.258-0.209c-0.133-0.09-0.279-0.216-0.397-0.306
	c-0.104-0.049-0.229-0.098-0.327-0.195c-0.091-0.069-0.244-0.146-0.348-0.223c-0.139-0.035-0.258-0.133-0.355-0.16
	c-0.153-0.084-0.251-0.153-0.404-0.195c-0.139-0.049-0.265-0.091-0.39-0.153c0,0-0.042-0.028-0.063-0.028
	c-0.104-0.048-0.257-0.048-0.369-0.09c-0.111-0.056-0.237-0.084-0.355-0.098c-0.035,0-0.104-0.035-0.133-0.049L42.262,138.535
	c-0.104-0.021-0.181-0.056-0.251-0.056c-0.132-0.007-0.299-0.027-0.466-0.062c-0.119-0.014-0.25-0.028-0.39-0.028
	c-0.132,0-0.271,0-0.383,0c-0.132,0-0.307,0-0.46,0c-0.111,0.014-0.216,0.014-0.348,0.028c-0.16,0.035-0.313,0.056-0.439,0.062
	c-0.139,0.056-0.257,0.084-0.369,0.084c-0.118,0.027-0.306,0.118-0.396,0.153c-0.146,0.027-0.279,0.056-0.411,0.104
	c-0.104,0.042-0.258,0.111-0.355,0.132c-0.118,0.056-0.278,0.146-0.39,0.209c-0.125,0.042-0.251,0.091-0.369,0.181
	c-0.119,0.063-0.237,0.16-0.369,0.25c-0.132,0.07-0.237,0.146-0.362,0.23c-0.111,0.09-0.244,0.153-0.348,0.25
	c-0.111,0.104-0.258,0.181-0.369,0.348c-0.049,0.035-0.132,0.069-0.202,0.16c-0.028,0-0.049,0.042-0.049,0.042
	c-0.146,0.167-0.251,0.313-0.369,0.418c-0.084,0.125-0.188,0.167-0.251,0.313c-0.118,0.09-0.223,0.236-0.313,0.369
	c-0.09,0.098-0.188,0.244-0.258,0.355c-0.09,0.104-0.174,0.265-0.271,0.418c-0.049,0.098-0.139,0.244-0.202,0.355
	c-0.062,0.146-0.153,0.292-0.236,0.418c-0.049,0.167-0.119,0.292-0.188,0.445c-0.062,0.126-0.09,0.265-0.181,0.425
	c-0.035,0.146-0.119,0.258-0.153,0.453c-0.062,0.111-0.104,0.278-0.146,0.432c-0.035,0.16-0.104,0.327-0.146,0.487
	c0,0.126-0.056,0.307-0.056,0.411c-0.049,0.188-0.091,0.397-0.139,0.543c0,0.077,0,0.119-0.014,0.174c0,0.119,0,0.195-0.021,0.321
	c-0.028,0.139-0.062,0.32-0.062,0.501c0,0.146-0.035,0.307-0.035,0.516c0,0.139-0.021,0.327-0.021,0.445
	c0,0.167,0.021,0.349,0.021,0.529c0.035,0.153,0.035,0.3,0.035,0.418c0,0.209,0.049,0.362,0.062,0.551
	c0.021,0.132,0.035,0.278,0.07,0.438c0.035,0.181,0.056,0.334,0.104,0.487c0,0.14,0.056,0.341,0.077,0.467
	c0.021,0.153,0.09,0.327,0.153,0.432c0.056,0.202,0.104,0.355,0.153,0.495s0.083,0.279,0.153,0.418
	c0.056,0.188,0.104,0.292,0.188,0.48c0.07,0.119,0.125,0.279,0.216,0.397c0.049,0.14,0.119,0.292,0.188,0.404
	c0.083,0.153,0.16,0.306,0.243,0.452c0.104,0.104,0.119,0.195,0.161,0.244l53.007,79.849H23.061c-0.091,0-0.146,0.056-0.209,0.056
	c-0.174,0-0.32,0-0.474,0.014c-0.132,0-0.271,0.035-0.383,0.035c-0.153,0.027-0.286,0.056-0.411,0.098
	c-0.139,0-0.265,0.069-0.418,0.076c-0.111,0.056-0.229,0.104-0.348,0.133c-0.153,0.014-0.292,0.09-0.439,0.153
	c-0.104,0.035-0.202,0.104-0.355,0.188c-0.111,0.028-0.237,0.104-0.404,0.118c-0.091,0.133-0.216,0.174-0.334,0.237
	c-0.104,0.09-0.216,0.181-0.341,0.216c-0.125,0.104-0.216,0.181-0.369,0.292c-0.098,0.083-0.195,0.146-0.286,0.237
	c-0.132,0.083-0.25,0.209-0.348,0.362c-0.118,0.062-0.209,0.125-0.271,0.243c-0.14,0.133-0.251,0.237-0.334,0.349
	c-0.104,0.118-0.188,0.244-0.292,0.334c-0.077,0.119-0.167,0.251-0.244,0.355c-0.16,0.188-0.244,0.3-0.292,0.425
	c-0.07,0.118-0.118,0.181-0.167,0.229c-0.014,0.056-0.049,0.098-0.07,0.119c-0.083,0.153-0.16,0.362-0.271,0.515
	c-0.063,0.091-0.104,0.237-0.161,0.349c-0.069,0.16-0.167,0.313-0.236,0.494c-0.021,0.153-0.098,0.265-0.153,0.376
	c-0.056,0.153-0.104,0.32-0.132,0.495c-0.07,0.167-0.119,0.278-0.167,0.445c-0.035,0.153-0.056,0.279-0.069,0.46
	c-0.07,0.125-0.104,0.32-0.14,0.515c-0.014,0.125-0.048,0.258-0.048,0.425c-0.042,0.16-0.063,0.348-0.083,0.529
	c-0.007,0.139-0.007,0.306-0.007,0.403c-0.035,0.216-0.035,0.397-0.035,0.6c0,0.056-0.028,0.125-0.028,0.153
	c0,0.097,0.028,0.16,0.028,0.299c0,0.167,0,0.355,0.035,0.509c0,0.174,0.007,0.341,0.028,0.508c0,0.153,0.049,0.306,0.063,0.48
	c0.035,0.153,0.048,0.328,0.083,0.522c0.035,0.132,0.056,0.265,0.104,0.425c0.035,0.16,0.069,0.313,0.118,0.515
	c0.028,0.111,0.091,0.258,0.132,0.362c0.063,0.167,0.119,0.355,0.174,0.509c0.062,0.16,0.098,0.265,0.167,0.432
	c0.063,0.139,0.125,0.292,0.181,0.396c0.056,0.174,0.146,0.293,0.216,0.453c0.07,0.104,0.119,0.229,0.202,0.39
	c0.09,0.119,0.167,0.272,0.271,0.411c0.083,0.091,0.174,0.229,0.258,0.341c0.077,0.139,0.167,0.237,0.258,0.383
	c0.104,0.125,0.23,0.216,0.313,0.299c0.063,0.182,0.202,0.223,0.3,0.362c0.083,0.119,0.202,0.251,0.348,0.349
	c0.049,0.069,0.083,0.146,0.174,0.181l190.933,167.303l-34.704,271.562c0,0.014,0,0.069,0,0.098v0.049c0,0.007,0,0.034,0,0.098
	c-0.021,0.285-0.056,0.57-0.091,0.85c0,0.139,0,0.229,0,0.341c0,0.209,0,0.432,0,0.634c0,0.167,0.035,0.342,0.035,0.508
	c0.035,0.126,0.035,0.293,0.056,0.433c0,0.181,0,0.411,0.083,0.563c0,0.16,0.028,0.266,0.062,0.383
	c0.014,0.195,0.083,0.391,0.119,0.586c0.035,0.104,0.035,0.243,0.104,0.383c0.048,0.146,0.104,0.307,0.146,0.467
	c0.062,0.139,0.062,0.299,0.16,0.41c0.056,0.14,0.091,0.279,0.16,0.426c0.07,0.181,0.14,0.312,0.202,0.459
	c0.056,0.091,0.111,0.209,0.181,0.355c0.09,0.153,0.174,0.307,0.257,0.46c0.042,0.076,0.104,0.194,0.133,0.299
	c0.139,0.167,0.271,0.321,0.376,0.46c0.028,0.125,0.111,0.202,0.181,0.278c0.104,0.126,0.216,0.265,0.376,0.404
	c0.077,0.146,0.146,0.216,0.257,0.292c0.112,0.126,0.209,0.237,0.321,0.335c0.139,0.14,0.292,0.243,0.432,0.369
	c0.049,0.069,0.16,0.153,0.237,0.188c0.195,0.175,0.418,0.278,0.613,0.425c0.035,0,0.035,0,0.09,0.042c0,0,0,0,0.014,0
	c0.286,0.202,0.571,0.349,0.871,0.453c0.049,0.027,0.139,0.083,0.244,0.083c0.16,0.098,0.362,0.153,0.606,0.23
	c0.119,0.041,0.265,0.076,0.418,0.111c0.098,0.021,0.174,0.049,0.307,0.098c0.007,0,0.076,0,0.097,0
	c0.418,0.027,0.738,0.098,1.163,0.098h0.014l0,0c0.334,0,0.654-0.028,1.01-0.077c0.083-0.021,0.111-0.021,0.188-0.021
	c0.697-0.133,1.372-0.377,1.971-0.676c0.083-0.028,0.111-0.028,0.188-0.098c0.313-0.167,0.613-0.342,0.912-0.557
	c0.028-0.042,0.063-0.063,0.153-0.112c0.223-0.188,0.467-0.383,0.675-0.585c0.084-0.069,0.119-0.139,0.202-0.181
	c0.237-0.237,0.488-0.516,0.704-0.808c0.049-0.063,0.104-0.14,0.174-0.202c0.208-0.278,0.396-0.613,0.605-0.927
	c0-0.014,0.028-0.014,0.028-0.076c0.202-0.32,0.369-0.711,0.557-1.129c0.007,0,0.007-0.062,0.07-0.062l60.696-146.305
	l201.119-105.395c0.084-0.014,0.084-0.027,0.14-0.069c0.153-0.069,0.348-0.16,0.474-0.307c0.042,0,0.042,0,0.056,0
	c0.027-0.056,0.042-0.056,0.084-0.056c0.069-0.014,0.098-0.062,0.167-0.146c0.097-0.069,0.265-0.181,0.362-0.258
	c0.069-0.076,0.152-0.125,0.236-0.209c0.027,0,0.027-0.027,0.111-0.069c0.056-0.091,0.167-0.16,0.251-0.243
	c0.014,0,0.056,0,0.056-0.07c0.042,0,0.042-0.021,0.069-0.027c0.056-0.119,0.14-0.202,0.224-0.258
	c0.055-0.062,0.139-0.153,0.209-0.209c0.027,0,0.027-0.056,0.027-0.056c0-0.028,0.069-0.069,0.111-0.14c0,0,0.027-0.014,0.056-0.084
	c0.056-0.021,0.098-0.111,0.153-0.16c0.042-0.139,0.098-0.215,0.223-0.292c0.028-0.111,0.111-0.174,0.182-0.271
	c0.014-0.049,0.056-0.098,0.125-0.16c0-0.049,0-0.077,0.042-0.146c0.027-0.014,0.027-0.069,0.069-0.16c0.042,0,0.042,0,0.042-0.021
	c0.083-0.104,0.14-0.174,0.195-0.342c0.014-0.027,0.014-0.062,0.042-0.09c0.069-0.091,0.111-0.266,0.166-0.369
	c0.07-0.14,0.14-0.217,0.209-0.369l0,0l0.042-0.049c0.042-0.146,0.098-0.313,0.153-0.432c0.014-0.188,0.084-0.279,0.111-0.404
	c0.014-0.014,0.014-0.014,0.014-0.049c0.07-0.153,0.154-0.307,0.154-0.474l0.027-0.077c0-0.062,0.042-0.062,0.042-0.076l0.014-0.16
	l0,0l37.316-142.397h78.825l0,0c0,0,0.027,0,0.069,0c0.306,0,0.599-0.021,0.878-0.042c0.097-0.042,0.194-0.056,0.236-0.09
	c0.278-0.028,0.516-0.056,0.752-0.119c0.07-0.034,0.182-0.056,0.265-0.125c0.209-0.062,0.446-0.14,0.683-0.271
	c0.084-0.007,0.153-0.021,0.209-0.062c0.293-0.16,0.599-0.321,0.892-0.502c0-0.027,0-0.027,0-0.027
	c0.265-0.14,0.515-0.376,0.78-0.529c0.069-0.104,0.209-0.202,0.278-0.258c0.167-0.182,0.334-0.313,0.445-0.516
	c0.084-0.091,0.209-0.153,0.32-0.244c0.167-0.265,0.362-0.515,0.529-0.759c0.015-0.042,0.056-0.042,0.084-0.091
	c0.223-0.306,0.403-0.634,0.571-0.988c0.027-0.028,0.027-0.028,0.027-0.063c0.07-0.125,0.098-0.16,0.14-0.23
	c0.069-0.188,0.167-0.355,0.236-0.557c0.07-0.104,0.112-0.216,0.167-0.348c0.028-0.174,0.111-0.348,0.154-0.55
	c0.055-0.09,0.097-0.25,0.152-0.397c0.042-0.16,0.084-0.32,0.111-0.494c0.028-0.167,0.084-0.307,0.111-0.48
	c0.042-0.153,0.042-0.293,0.07-0.446c0-0.188,0.056-0.327,0.069-0.543c0.042-0.146,0.042-0.278,0.042-0.418
	c0.014-0.195,0.014-0.418,0.014-0.613c0-0.077,0.042-0.181,0.042-0.258C581.009,287.187,581.009,287.146,580.967,287.124z"/>
</svg>
