<?xml version="1.0" encoding="utf-8"?>
<!-- Generator: Adobe Illustrator 16.0.0, SVG Export Plug-In . SVG Version: 6.00 Build 0)  -->
<!DOCTYPE svg PUBLIC "-//W3C//DTD SVG 1.1//EN" "http://www.w3.org/Graphics/SVG/1.1/DTD/svg11.dtd">
<svg version="1.1" id="Layer_1" xmlns="http://www.w3.org/2000/svg" xmlns:xlink="http://www.w3.org/1999/xlink" x="0px" y="0px"
	 width="1020px" height="1020px" viewBox="480 0 1020 1020" enable-background="new 480 0 1020 1020" xml:space="preserve">
<path fill="#7BC8AA" d="M480,510c0,219.28,138.401,406.217,332.605,478.276l44.351-478.278L812.605,31.722
	C618.401,103.783,480,290.718,480,510z"/>
<path fill="#F09B9C" d="M1500,510c0-281.664-228.337-510-510-510c-62.383,0-122.143,11.222-177.395,31.722v956.557
	C867.857,1008.78,927.617,1020,990,1020C1271.663,1020,1500,791.663,1500,510z"/>
<circle fill="#F3CE7B" cx="812.609" cy="510" r="177.391"/>
<path fill="#F09B9C" d="M712.827,421.304v110.869c0,55.108,44.673,99.783,99.782,99.783s99.783-44.673,99.783-99.783V421.304
	H712.827z"/>
<path fill="#F0F0F0" d="M812.609,565.435c-18.34,0-33.263-14.922-33.263-33.262v-44.346h66.521v44.348
	C845.869,550.513,830.947,565.435,812.609,565.435z"/>
</svg>
